<svg xmlns="http://www.w3.org/2000/svg" version="1.1">
<line x1="0.000000" y1="0.000000" x2="0.000000" y2="720.000000" style="stroke:rgb(0,0,0);stroke-width:1"/>
<line x1="0.000000" y1="0.000000" x2="100.000000" y2="0.000000" style="stroke:rgb(0,0,0);stroke-width:1"/>
<circle cx="65.021321" cy="27.103482" r="0.250000" stroke="black" stroke-width="0.25"/>
<circle cx="15.051780" cy="28.848457" r="0.250000" stroke="black" stroke-width="0.25"/>
<circle cx="62.005788" cy="26.545191" r="0.250000" stroke="black" stroke-width="0.25"/>
<circle cx="12.013403" cy="27.417812" r="0.250000" stroke="black" stroke-width="0.25"/>
<circle cx="67.020103" cy="24.730317" r="0.250000" stroke="black" stroke-width="0.25"/>
<circle cx="17.050561" cy="22.985342" r="0.250000" stroke="black" stroke-width="0.25"/>
<circle cx="70.655572" cy="19.644649" r="0.250000" stroke="black" stroke-width="0.25"/>
<circle cx="21.748192" cy="9.249065" r="0.250000" stroke="black" stroke-width="0.25"/>
<circle cx="98.059409" cy="26.365844" r="0.250000" stroke="black" stroke-width="0.25"/>
<circle cx="49.544622" cy="38.461939" r="0.250000" stroke="black" stroke-width="0.25"/>
<circle cx="56.336692" cy="14.995515" r="0.250000" stroke="black" stroke-width="0.25"/>
<circle cx="7.821906" cy="2.899420" r="0.250000" stroke="black" stroke-width="0.25"/>
<circle cx="68.019494" cy="24.765216" r="0.250000" stroke="black" stroke-width="0.25"/>
<circle cx="18.049952" cy="23.020241" r="0.250000" stroke="black" stroke-width="0.25"/>
<circle cx="63.005635" cy="26.527739" r="0.250000" stroke="black" stroke-width="0.25"/>
<circle cx="13.013251" cy="27.400359" r="0.250000" stroke="black" stroke-width="0.25"/>
<circle cx="78.053591" cy="24.347358" r="0.250000" stroke="black" stroke-width="0.25"/>
<circle cx="28.175388" cy="20.859534" r="0.250000" stroke="black" stroke-width="0.25"/>
<circle cx="97.001828" cy="25.986698" r="0.250000" stroke="black" stroke-width="0.25"/>
<circle cx="47.032286" cy="27.731673" r="0.250000" stroke="black" stroke-width="0.25"/>
<circle cx="61.023758" cy="87.243080" r="0.250000" stroke="black" stroke-width="0.25"/>
<circle cx="11.054216" cy="88.988055" r="0.250000" stroke="black" stroke-width="0.25"/>
<circle cx="58.006397" cy="86.615001" r="0.250000" stroke="black" stroke-width="0.25"/>
<circle cx="8.014012" cy="87.487621" r="0.250000" stroke="black" stroke-width="0.25"/>
<circle cx="63.022539" cy="84.590719" r="0.250000" stroke="black" stroke-width="0.25"/>
<circle cx="13.052998" cy="82.845744" r="0.250000" stroke="black" stroke-width="0.25"/>
<circle cx="66.742982" cy="78.813003" r="0.250000" stroke="black" stroke-width="0.25"/>
<circle cx="17.835602" cy="68.417418" r="0.250000" stroke="black" stroke-width="0.25"/>
<circle cx="94.178226" cy="87.333531" r="0.250000" stroke="black" stroke-width="0.25"/>
<circle cx="45.663439" cy="99.429626" r="0.250000" stroke="black" stroke-width="0.25"/>
<circle cx="52.455509" cy="74.027827" r="0.250000" stroke="black" stroke-width="0.25"/>
<circle cx="3.940723" cy="61.931732" r="0.250000" stroke="black" stroke-width="0.25"/>
<circle cx="64.021930" cy="84.625618" r="0.250000" stroke="black" stroke-width="0.25"/>
<circle cx="14.052389" cy="82.880643" r="0.250000" stroke="black" stroke-width="0.25"/>
<circle cx="59.006244" cy="86.597549" r="0.250000" stroke="black" stroke-width="0.25"/>
<circle cx="9.013860" cy="87.470169" r="0.250000" stroke="black" stroke-width="0.25"/>
<circle cx="74.063335" cy="84.068332" r="0.250000" stroke="black" stroke-width="0.25"/>
<circle cx="24.185132" cy="80.580508" r="0.250000" stroke="black" stroke-width="0.25"/>
<circle cx="93.004264" cy="86.126296" r="0.250000" stroke="black" stroke-width="0.25"/>
<circle cx="43.034723" cy="87.871271" r="0.250000" stroke="black" stroke-width="0.25"/>
<circle cx="57.026194" cy="147.382678" r="0.250000" stroke="black" stroke-width="0.25"/>
<circle cx="7.056653" cy="149.127653" r="0.250000" stroke="black" stroke-width="0.25"/>
<circle cx="54.007006" cy="146.684811" r="0.250000" stroke="black" stroke-width="0.25"/>
<circle cx="4.014621" cy="147.557431" r="0.250000" stroke="black" stroke-width="0.25"/>
<circle cx="59.024976" cy="144.451121" r="0.250000" stroke="black" stroke-width="0.25"/>
<circle cx="9.055435" cy="142.706146" r="0.250000" stroke="black" stroke-width="0.25"/>
<circle cx="62.830391" cy="137.981356" r="0.250000" stroke="black" stroke-width="0.25"/>
<circle cx="13.923011" cy="127.585771" r="0.250000" stroke="black" stroke-width="0.25"/>
<circle cx="90.297043" cy="148.301219" r="0.250000" stroke="black" stroke-width="0.25"/>
<circle cx="41.782256" cy="160.397314" r="0.250000" stroke="black" stroke-width="0.25"/>
<circle cx="48.574327" cy="133.060140" r="0.250000" stroke="black" stroke-width="0.25"/>
<circle cx="97.089113" cy="145.156234" r="0.250000" stroke="black" stroke-width="0.25"/>
<circle cx="60.024367" cy="144.486020" r="0.250000" stroke="black" stroke-width="0.25"/>
<circle cx="10.054826" cy="142.741045" r="0.250000" stroke="black" stroke-width="0.25"/>
<circle cx="55.006854" cy="146.667358" r="0.250000" stroke="black" stroke-width="0.25"/>
<circle cx="5.014469" cy="147.539979" r="0.250000" stroke="black" stroke-width="0.25"/>
<circle cx="70.073078" cy="143.789306" r="0.250000" stroke="black" stroke-width="0.25"/>
<circle cx="20.194876" cy="140.301482" r="0.250000" stroke="black" stroke-width="0.25"/>
<circle cx="89.006701" cy="146.265894" r="0.250000" stroke="black" stroke-width="0.25"/>
<circle cx="39.037160" cy="148.010869" r="0.250000" stroke="black" stroke-width="0.25"/>
<circle cx="53.028631" cy="207.522276" r="0.250000" stroke="black" stroke-width="0.25"/>
<circle cx="3.059090" cy="209.267251" r="0.250000" stroke="black" stroke-width="0.25"/>
<circle cx="50.007615" cy="206.754620" r="0.250000" stroke="black" stroke-width="0.25"/>
<circle cx="55.027413" cy="204.311523" r="0.250000" stroke="black" stroke-width="0.25"/>
<circle cx="5.057871" cy="202.566548" r="0.250000" stroke="black" stroke-width="0.25"/>
<circle cx="58.917801" cy="197.149709" r="0.250000" stroke="black" stroke-width="0.25"/>
<circle cx="10.010421" cy="186.754124" r="0.250000" stroke="black" stroke-width="0.25"/>
<circle cx="86.415860" cy="209.268907" r="0.250000" stroke="black" stroke-width="0.25"/>
<circle cx="37.901074" cy="221.365001" r="0.250000" stroke="black" stroke-width="0.25"/>
<circle cx="44.693144" cy="192.092452" r="0.250000" stroke="black" stroke-width="0.25"/>
<circle cx="93.207930" cy="204.188547" r="0.250000" stroke="black" stroke-width="0.25"/>
<circle cx="56.026804" cy="204.346422" r="0.250000" stroke="black" stroke-width="0.25"/>
<circle cx="6.057262" cy="202.601447" r="0.250000" stroke="black" stroke-width="0.25"/>
<circle cx="51.007463" cy="206.737168" r="0.250000" stroke="black" stroke-width="0.25"/>
<circle cx="1.015078" cy="207.609788" r="0.250000" stroke="black" stroke-width="0.25"/>
<circle cx="66.082822" cy="203.510280" r="0.250000" stroke="black" stroke-width="0.25"/>
<circle cx="16.204620" cy="200.022456" r="0.250000" stroke="black" stroke-width="0.25"/>
<circle cx="85.009138" cy="206.405492" r="0.250000" stroke="black" stroke-width="0.25"/>
<circle cx="35.039596" cy="208.150467" r="0.250000" stroke="black" stroke-width="0.25"/>
<circle cx="49.031068" cy="267.661874" r="0.250000" stroke="black" stroke-width="0.25"/>
<circle cx="99.000609" cy="265.916899" r="0.250000" stroke="black" stroke-width="0.25"/>
<circle cx="46.008224" cy="266.824430" r="0.250000" stroke="black" stroke-width="0.25"/>
<circle cx="96.000609" cy="265.951810" r="0.250000" stroke="black" stroke-width="0.25"/>
<circle cx="51.029849" cy="264.171925" r="0.250000" stroke="black" stroke-width="0.25"/>
<circle cx="1.060308" cy="262.426950" r="0.250000" stroke="black" stroke-width="0.25"/>
<circle cx="55.005210" cy="256.318062" r="0.250000" stroke="black" stroke-width="0.25"/>
<circle cx="6.097830" cy="245.922478" r="0.250000" stroke="black" stroke-width="0.25"/>
<circle cx="82.534677" cy="270.236594" r="0.250000" stroke="black" stroke-width="0.25"/>
<circle cx="34.019891" cy="282.332689" r="0.250000" stroke="black" stroke-width="0.25"/>
<circle cx="40.811961" cy="251.124764" r="0.250000" stroke="black" stroke-width="0.25"/>
<circle cx="89.326747" cy="263.220859" r="0.250000" stroke="black" stroke-width="0.25"/>
<circle cx="52.029240" cy="264.206824" r="0.250000" stroke="black" stroke-width="0.25"/>
<circle cx="2.059699" cy="262.461849" r="0.250000" stroke="black" stroke-width="0.25"/>
<circle cx="47.008072" cy="266.806978" r="0.250000" stroke="black" stroke-width="0.25"/>
<circle cx="97.000457" cy="265.934357" r="0.250000" stroke="black" stroke-width="0.25"/>
<circle cx="62.092566" cy="263.231254" r="0.250000" stroke="black" stroke-width="0.25"/>
<circle cx="12.214364" cy="259.743430" r="0.250000" stroke="black" stroke-width="0.25"/>
<circle cx="81.011574" cy="266.545090" r="0.250000" stroke="black" stroke-width="0.25"/>
<circle cx="31.042033" cy="268.290065" r="0.250000" stroke="black" stroke-width="0.25"/>
<circle cx="45.033505" cy="327.801472" r="0.250000" stroke="black" stroke-width="0.25"/>
<circle cx="95.003046" cy="326.056497" r="0.250000" stroke="black" stroke-width="0.25"/>
<circle cx="42.008834" cy="326.894240" r="0.250000" stroke="black" stroke-width="0.25"/>
<circle cx="92.001218" cy="326.021619" r="0.250000" stroke="black" stroke-width="0.25"/>
<circle cx="47.032286" cy="324.032327" r="0.250000" stroke="black" stroke-width="0.25"/>
<circle cx="97.001828" cy="325.777302" r="0.250000" stroke="black" stroke-width="0.25"/>
<circle cx="51.092620" cy="315.486415" r="0.250000" stroke="black" stroke-width="0.25"/>
<circle cx="78.653494" cy="331.204282" r="0.250000" stroke="black" stroke-width="0.25"/>
<circle cx="30.138708" cy="343.300376" r="0.250000" stroke="black" stroke-width="0.25"/>
<circle cx="36.930778" cy="310.157077" r="0.250000" stroke="black" stroke-width="0.25"/>
<circle cx="85.445564" cy="322.253172" r="0.250000" stroke="black" stroke-width="0.25"/>
<circle cx="48.031677" cy="324.067226" r="0.250000" stroke="black" stroke-width="0.25"/>
<circle cx="98.001218" cy="325.812201" r="0.250000" stroke="black" stroke-width="0.25"/>
<circle cx="43.008681" cy="326.876787" r="0.250000" stroke="black" stroke-width="0.25"/>
<circle cx="93.001066" cy="326.004167" r="0.250000" stroke="black" stroke-width="0.25"/>
<circle cx="58.102310" cy="322.952228" r="0.250000" stroke="black" stroke-width="0.25"/>
<circle cx="8.224107" cy="319.464404" r="0.250000" stroke="black" stroke-width="0.25"/>
<circle cx="77.014011" cy="326.684688" r="0.250000" stroke="black" stroke-width="0.25"/>
<circle cx="27.044470" cy="328.429663" r="0.250000" stroke="black" stroke-width="0.25"/>
<circle cx="41.035941" cy="387.941070" r="0.250000" stroke="black" stroke-width="0.25"/>
<circle cx="91.005483" cy="386.196095" r="0.250000" stroke="black" stroke-width="0.25"/>
<circle cx="38.009443" cy="386.964049" r="0.250000" stroke="black" stroke-width="0.25"/>
<circle cx="88.001828" cy="386.091429" r="0.250000" stroke="black" stroke-width="0.25"/>
<circle cx="43.034723" cy="383.892729" r="0.250000" stroke="black" stroke-width="0.25"/>
<circle cx="93.004264" cy="385.637704" r="0.250000" stroke="black" stroke-width="0.25"/>
<circle cx="47.180030" cy="374.654769" r="0.250000" stroke="black" stroke-width="0.25"/>
<circle cx="96.087410" cy="385.050353" r="0.250000" stroke="black" stroke-width="0.25"/>
<circle cx="74.772311" cy="392.171969" r="0.250000" stroke="black" stroke-width="0.25"/>
<circle cx="26.257525" cy="404.268064" r="0.250000" stroke="black" stroke-width="0.25"/>
<circle cx="33.049595" cy="369.189389" r="0.250000" stroke="black" stroke-width="0.25"/>
<circle cx="81.564381" cy="381.285484" r="0.250000" stroke="black" stroke-width="0.25"/>
<circle cx="44.034114" cy="383.927628" r="0.250000" stroke="black" stroke-width="0.25"/>
<circle cx="94.003655" cy="385.672603" r="0.250000" stroke="black" stroke-width="0.25"/>
<circle cx="39.009291" cy="386.946597" r="0.250000" stroke="black" stroke-width="0.25"/>
<circle cx="89.001675" cy="386.073976" r="0.250000" stroke="black" stroke-width="0.25"/>
<circle cx="54.112054" cy="382.673202" r="0.250000" stroke="black" stroke-width="0.25"/>
<circle cx="4.233851" cy="379.185379" r="0.250000" stroke="black" stroke-width="0.25"/>
<circle cx="73.016448" cy="386.824286" r="0.250000" stroke="black" stroke-width="0.25"/>
<circle cx="23.046906" cy="388.569261" r="0.250000" stroke="black" stroke-width="0.25"/>
<circle cx="37.038378" cy="448.080668" r="0.250000" stroke="black" stroke-width="0.25"/>
<circle cx="87.007919" cy="446.335693" r="0.250000" stroke="black" stroke-width="0.25"/>
<circle cx="34.010052" cy="447.033859" r="0.250000" stroke="black" stroke-width="0.25"/>
<circle cx="84.002437" cy="446.161239" r="0.250000" stroke="black" stroke-width="0.25"/>
<circle cx="39.037160" cy="443.753131" r="0.250000" stroke="black" stroke-width="0.25"/>
<circle cx="89.006701" cy="445.498106" r="0.250000" stroke="black" stroke-width="0.25"/>
<circle cx="43.267439" cy="433.823122" r="0.250000" stroke="black" stroke-width="0.25"/>
<circle cx="92.174819" cy="444.218706" r="0.250000" stroke="black" stroke-width="0.25"/>
<circle cx="70.891128" cy="453.139657" r="0.250000" stroke="black" stroke-width="0.25"/>
<circle cx="22.376342" cy="465.235752" r="0.250000" stroke="black" stroke-width="0.25"/>
<circle cx="29.168412" cy="428.221702" r="0.250000" stroke="black" stroke-width="0.25"/>
<circle cx="77.683198" cy="440.317796" r="0.250000" stroke="black" stroke-width="0.25"/>
<circle cx="40.036550" cy="443.788030" r="0.250000" stroke="black" stroke-width="0.25"/>
<circle cx="90.006092" cy="445.533005" r="0.250000" stroke="black" stroke-width="0.25"/>
<circle cx="35.009900" cy="447.016406" r="0.250000" stroke="black" stroke-width="0.25"/>
<circle cx="85.002285" cy="446.143786" r="0.250000" stroke="black" stroke-width="0.25"/>
<circle cx="50.121797" cy="442.394176" r="0.250000" stroke="black" stroke-width="0.25"/>
<circle cx="69.018884" cy="446.963884" r="0.250000" stroke="black" stroke-width="0.25"/>
<circle cx="19.049343" cy="448.708859" r="0.250000" stroke="black" stroke-width="0.25"/>
<circle cx="33.040815" cy="508.220266" r="0.250000" stroke="black" stroke-width="0.25"/>
<circle cx="83.010356" cy="506.475291" r="0.250000" stroke="black" stroke-width="0.25"/>
<circle cx="30.010661" cy="507.103668" r="0.250000" stroke="black" stroke-width="0.25"/>
<circle cx="80.003046" cy="506.231048" r="0.250000" stroke="black" stroke-width="0.25"/>
<circle cx="35.039596" cy="503.613533" r="0.250000" stroke="black" stroke-width="0.25"/>
<circle cx="85.009138" cy="505.358508" r="0.250000" stroke="black" stroke-width="0.25"/>
<circle cx="39.354849" cy="492.991475" r="0.250000" stroke="black" stroke-width="0.25"/>
<circle cx="88.262229" cy="503.387060" r="0.250000" stroke="black" stroke-width="0.25"/>
<circle cx="67.009945" cy="514.107344" r="0.250000" stroke="black" stroke-width="0.25"/>
<circle cx="18.495159" cy="526.203439" r="0.250000" stroke="black" stroke-width="0.25"/>
<circle cx="25.287229" cy="487.254014" r="0.250000" stroke="black" stroke-width="0.25"/>
<circle cx="73.802015" cy="499.350109" r="0.250000" stroke="black" stroke-width="0.25"/>
<circle cx="36.038987" cy="503.648432" r="0.250000" stroke="black" stroke-width="0.25"/>
<circle cx="86.008528" cy="505.393407" r="0.250000" stroke="black" stroke-width="0.25"/>
<circle cx="31.010509" cy="507.086216" r="0.250000" stroke="black" stroke-width="0.25"/>
<circle cx="81.002894" cy="506.213596" r="0.250000" stroke="black" stroke-width="0.25"/>
<circle cx="46.131541" cy="502.115150" r="0.250000" stroke="black" stroke-width="0.25"/>
<circle cx="96.009744" cy="505.602974" r="0.250000" stroke="black" stroke-width="0.25"/>
<circle cx="65.021321" cy="507.103482" r="0.250000" stroke="black" stroke-width="0.25"/>
<circle cx="15.051780" cy="508.848457" r="0.250000" stroke="black" stroke-width="0.25"/>
<circle cx="29.043251" cy="568.359864" r="0.250000" stroke="black" stroke-width="0.25"/>
<circle cx="79.012793" cy="566.614889" r="0.250000" stroke="black" stroke-width="0.25"/>
<circle cx="26.011271" cy="567.173478" r="0.250000" stroke="black" stroke-width="0.25"/>
<circle cx="76.003655" cy="566.300858" r="0.250000" stroke="black" stroke-width="0.25"/>
<circle cx="31.042033" cy="563.473935" r="0.250000" stroke="black" stroke-width="0.25"/>
<circle cx="81.011574" cy="565.218910" r="0.250000" stroke="black" stroke-width="0.25"/>
<circle cx="35.442258" cy="552.159828" r="0.250000" stroke="black" stroke-width="0.25"/>
<circle cx="84.349638" cy="562.555413" r="0.250000" stroke="black" stroke-width="0.25"/>
<circle cx="63.128762" cy="575.075032" r="0.250000" stroke="black" stroke-width="0.25"/>
<circle cx="14.613976" cy="587.171127" r="0.250000" stroke="black" stroke-width="0.25"/>
<circle cx="21.406046" cy="546.286326" r="0.250000" stroke="black" stroke-width="0.25"/>
<circle cx="69.920832" cy="558.382421" r="0.250000" stroke="black" stroke-width="0.25"/>
<circle cx="32.041424" cy="563.508834" r="0.250000" stroke="black" stroke-width="0.25"/>
<circle cx="82.010965" cy="565.253809" r="0.250000" stroke="black" stroke-width="0.25"/>
<circle cx="27.011118" cy="567.156026" r="0.250000" stroke="black" stroke-width="0.25"/>
<circle cx="77.003503" cy="566.283405" r="0.250000" stroke="black" stroke-width="0.25"/>
<circle cx="42.141285" cy="561.836125" r="0.250000" stroke="black" stroke-width="0.25"/>
<circle cx="92.019488" cy="565.323948" r="0.250000" stroke="black" stroke-width="0.25"/>
<circle cx="61.023758" cy="567.243080" r="0.250000" stroke="black" stroke-width="0.25"/>
<circle cx="11.054216" cy="568.988055" r="0.250000" stroke="black" stroke-width="0.25"/>
<circle cx="25.045688" cy="628.499462" r="0.250000" stroke="black" stroke-width="0.25"/>
<circle cx="75.015229" cy="626.754487" r="0.250000" stroke="black" stroke-width="0.25"/>
<circle cx="22.011880" cy="627.243288" r="0.250000" stroke="black" stroke-width="0.25"/>
<circle cx="72.004265" cy="626.370667" r="0.250000" stroke="black" stroke-width="0.25"/>
<circle cx="27.044470" cy="623.334337" r="0.250000" stroke="black" stroke-width="0.25"/>
<circle cx="77.014011" cy="625.079312" r="0.250000" stroke="black" stroke-width="0.25"/>
<circle cx="31.529668" cy="611.328182" r="0.250000" stroke="black" stroke-width="0.25"/>
<circle cx="80.437048" cy="621.723766" r="0.250000" stroke="black" stroke-width="0.25"/>
<circle cx="59.247579" cy="636.042720" r="0.250000" stroke="black" stroke-width="0.25"/>
<circle cx="10.732793" cy="648.138814" r="0.250000" stroke="black" stroke-width="0.25"/>
<circle cx="17.524863" cy="605.318639" r="0.250000" stroke="black" stroke-width="0.25"/>
<circle cx="66.039650" cy="617.414734" r="0.250000" stroke="black" stroke-width="0.25"/>
<circle cx="28.043860" cy="623.369236" r="0.250000" stroke="black" stroke-width="0.25"/>
<circle cx="78.013402" cy="625.114211" r="0.250000" stroke="black" stroke-width="0.25"/>
<circle cx="23.011727" cy="627.225835" r="0.250000" stroke="black" stroke-width="0.25"/>
<circle cx="73.004112" cy="626.353215" r="0.250000" stroke="black" stroke-width="0.25"/>
<circle cx="38.151029" cy="621.557099" r="0.250000" stroke="black" stroke-width="0.25"/>
<circle cx="88.029231" cy="625.044922" r="0.250000" stroke="black" stroke-width="0.25"/>
<circle cx="57.026194" cy="627.382678" r="0.250000" stroke="black" stroke-width="0.25"/>
<circle cx="7.056653" cy="629.127653" r="0.250000" stroke="black" stroke-width="0.25"/>
<circle cx="21.048125" cy="688.639060" r="0.250000" stroke="black" stroke-width="0.25"/>
<circle cx="71.017666" cy="686.894085" r="0.250000" stroke="black" stroke-width="0.25"/>
<circle cx="18.012489" cy="687.313097" r="0.250000" stroke="black" stroke-width="0.25"/>
<circle cx="68.004874" cy="686.440477" r="0.250000" stroke="black" stroke-width="0.25"/>
<circle cx="23.046906" cy="683.194739" r="0.250000" stroke="black" stroke-width="0.25"/>
<circle cx="73.016448" cy="684.939714" r="0.250000" stroke="black" stroke-width="0.25"/>
<circle cx="27.617078" cy="670.496535" r="0.250000" stroke="black" stroke-width="0.25"/>
<circle cx="76.524458" cy="680.892119" r="0.250000" stroke="black" stroke-width="0.25"/>
<circle cx="55.366397" cy="697.010407" r="0.250000" stroke="black" stroke-width="0.25"/>
<circle cx="6.851610" cy="709.106502" r="0.250000" stroke="black" stroke-width="0.25"/>
<circle cx="13.643680" cy="664.350951" r="0.250000" stroke="black" stroke-width="0.25"/>
<circle cx="62.158467" cy="676.447046" r="0.250000" stroke="black" stroke-width="0.25"/>
<circle cx="24.046297" cy="683.229638" r="0.250000" stroke="black" stroke-width="0.25"/>
<circle cx="74.015838" cy="684.974613" r="0.250000" stroke="black" stroke-width="0.25"/>
<circle cx="19.012337" cy="687.295645" r="0.250000" stroke="black" stroke-width="0.25"/>
<circle cx="69.004721" cy="686.423025" r="0.250000" stroke="black" stroke-width="0.25"/>
<circle cx="34.160773" cy="681.278073" r="0.250000" stroke="black" stroke-width="0.25"/>
<circle cx="84.038975" cy="684.765896" r="0.250000" stroke="black" stroke-width="0.25"/>
<circle cx="53.028631" cy="687.522276" r="0.250000" stroke="black" stroke-width="0.25"/>
<circle cx="3.059090" cy="689.267251" r="0.250000" stroke="black" stroke-width="0.25"/>
</svg>
